<svg width="28" height="28" viewBox="0 0 28 28" fill="none" xmlns="http://www.w3.org/2000/svg">
<path d="M28.0002 14.0003H16.3334L1.56101 11.5328L0 9.3336V2.33356L3.49302 0.310547L27.2897 12.9258L28.0002 14.0003Z" fill="white"/>
<path d="M26.8337 15.1673C27.478 15.1673 28.0003 14.645 28.0003 14.0007C28.0003 13.3563 27.478 12.834 26.8337 12.834C26.1893 12.834 25.667 13.3563 25.667 14.0007C25.667 14.645 26.1893 15.1673 26.8337 15.1673Z" fill="white"/>
<path d="M2.33335 11.6667C3.62202 11.6667 4.66669 10.622 4.66669 9.33335C4.66669 8.04467 3.62202 7 2.33335 7C1.04467 7 0 8.04467 0 9.33335C0 10.622 1.04467 11.6667 2.33335 11.6667Z" fill="white"/>
<path d="M2.33335 4.66669C3.62202 4.66669 4.66669 3.62202 4.66669 2.33335C4.66669 1.04467 3.62202 0 2.33335 0C1.04467 0 0 1.04467 0 2.33335C0 3.62202 1.04467 4.66669 2.33335 4.66669Z" fill="white"/>
<path d="M28.0002 14H16.3334L1.56101 16.4675L0 18.6667V25.6667L3.49302 27.6897L27.2897 15.0745L28.0002 14Z" fill="white"/>
<path d="M2.33335 21.0007C3.62202 21.0007 4.66669 19.956 4.66669 18.6673C4.66669 17.3787 3.62202 16.334 2.33335 16.334C1.04467 16.334 0 17.3787 0 18.6673C0 19.956 1.04467 21.0007 2.33335 21.0007Z" fill="white"/>
<path d="M2.33335 28.0007C3.62202 28.0007 4.66669 26.956 4.66669 25.6673C4.66669 24.3787 3.62202 23.334 2.33335 23.334C1.04467 23.334 0 24.3787 0 25.6673C0 26.956 1.04467 28.0007 2.33335 28.0007Z" fill="white"/>
</svg>
