<svg width="68" height="68" viewBox="0 0 68 68" fill="none" xmlns="http://www.w3.org/2000/svg">
<rect width="68" height="68" fill="url(#paint0_radial)"/>
<path d="M27.7661 33.9997C27.7661 30.556 30.557 27.7636 34.0007 27.7636C37.4444 27.7636 40.2368 30.556 40.2368 33.9997C40.2368 37.4434 37.4444 40.2358 34.0007 40.2358C30.557 40.2358 27.7661 37.4434 27.7661 33.9997ZM24.395 33.9997C24.395 39.3049 28.6955 43.6054 34.0007 43.6054C39.3059 43.6054 43.6064 39.3049 43.6064 33.9997C43.6064 28.6945 39.3059 24.394 34.0007 24.394C28.6955 24.394 24.3951 28.6942 24.3951 33.9997H24.395ZM41.742 24.0132C41.7418 24.4571 41.8733 24.8912 42.1198 25.2605C42.3663 25.6297 42.7168 25.9176 43.1269 26.0876C43.537 26.2577 43.9884 26.3023 44.4239 26.2159C44.8593 26.1295 45.2594 25.9158 45.5735 25.602C45.8875 25.2882 46.1015 24.8883 46.1883 24.4529C46.2751 24.0175 46.2308 23.5661 46.0611 23.1558C45.8913 22.7456 45.6037 22.3949 45.2347 22.1481C44.8656 21.9012 44.4317 21.7694 43.9877 21.7692H43.9868C43.3917 21.7695 42.821 22.006 42.4001 22.4267C41.9792 22.8474 41.7425 23.418 41.742 24.0132ZM26.4432 49.2267C24.6193 49.1436 23.628 48.8398 22.9692 48.5832C22.0959 48.2432 21.4727 47.8382 20.8175 47.1839C20.1623 46.5296 19.7568 45.9071 19.4183 45.0337C19.1615 44.3752 18.8577 43.3836 18.7747 41.5598C18.6841 39.5879 18.6659 38.9956 18.6659 34C18.6659 29.0044 18.6856 28.4137 18.7747 26.4402C18.8578 24.6164 19.1638 23.6267 19.4183 22.9663C19.7583 22.0929 20.1632 21.4698 20.8175 20.8146C21.4718 20.1594 22.0944 19.7539 22.9692 19.4153C23.6277 19.1585 24.6193 18.8547 26.4432 18.7718C28.415 18.6811 29.0073 18.663 34.0007 18.663C38.994 18.663 39.587 18.6823 41.5605 18.7721C43.3843 18.8552 44.3739 19.1612 45.0344 19.4156C45.9077 19.7542 46.5309 20.1606 47.1861 20.8149C47.8413 21.4692 48.2453 22.0932 48.5854 22.9666C48.8422 23.6251 49.146 24.6167 49.2289 26.4405C49.3196 28.414 49.3377 29.0047 49.3377 34.0003C49.3377 38.9959 49.3196 39.5866 49.2289 41.5601C49.1458 43.3839 48.8405 44.3752 48.5854 45.034C48.2453 45.9074 47.8404 46.5305 47.1861 47.1842C46.5318 47.8379 45.9077 48.2435 45.0344 48.5835C44.3759 48.8403 43.3843 49.1441 41.5605 49.227C39.5886 49.3177 38.9963 49.3358 34.0007 49.3358C29.0051 49.3358 28.4144 49.3177 26.4432 49.227V49.2267ZM26.2883 15.4063C24.2968 15.4969 22.936 15.8127 21.7476 16.2751C20.5176 16.7527 19.475 17.3934 18.4338 18.4329C17.3927 19.4724 16.7537 20.5151 16.2761 21.7466C15.8137 22.9358 15.4979 24.2958 15.4072 26.2873C15.315 28.2819 15.2939 28.9196 15.2939 33.9997C15.2939 39.0799 15.315 39.7175 15.4072 41.7121C15.4979 43.7037 15.8137 45.0636 16.2761 46.2528C16.7537 47.4828 17.3928 48.5275 18.4338 49.5666C19.4748 50.6056 20.5161 51.2454 21.7476 51.7243C22.9383 52.1867 24.2968 52.5025 26.2883 52.5932C28.2839 52.6838 28.9205 52.7064 34.0007 52.7064C39.0808 52.7064 39.7185 52.6853 41.7131 52.5932C43.7047 52.5025 45.0646 52.1867 46.2538 51.7243C47.4838 51.2454 48.5264 50.606 49.5675 49.5666C50.6087 48.5271 51.2464 47.4828 51.7252 46.2528C52.1877 45.0636 52.5049 43.7036 52.5941 41.7121C52.6848 39.716 52.7059 39.0799 52.7059 33.9997C52.7059 28.9196 52.6848 28.2819 52.5941 26.2873C52.5034 24.2957 52.1877 22.935 51.7252 21.7466C51.2464 20.5166 50.607 19.474 49.5675 18.4329C48.528 17.3917 47.4838 16.7527 46.2552 16.2751C45.0646 15.8127 43.7045 15.4955 41.7146 15.4063C39.7197 15.3151 39.0823 15.293 34.0029 15.293C28.9235 15.293 28.2847 15.3141 26.289 15.4063" fill="white"/>
<defs>
<radialGradient id="paint0_radial" cx="0" cy="0" r="1" gradientUnits="userSpaceOnUse" gradientTransform="translate(4.40089 66.5103) scale(86.3348)">
<stop offset="0.09" stop-color="#FF881B"/>
<stop offset="0.78" stop-color="#EE2584"/>
</radialGradient>
</defs>
</svg>
