<svg width="68" height="68" viewBox="0 0 68 68" fill="none" xmlns="http://www.w3.org/2000/svg">
<path d="M0 0H68V68H0V0Z" fill="#018AD2"/>
<path d="M17.873 22.2089C17.873 21.1746 18.2363 20.3213 18.9627 19.649C19.6891 18.9768 20.6335 18.6406 21.7958 18.6406C22.9374 18.6406 23.861 18.9716 24.5667 19.6335C25.2931 20.3162 25.6563 21.2056 25.6563 22.302C25.6563 23.2949 25.3035 24.1223 24.5978 24.7842C23.8714 25.4668 22.9166 25.8082 21.7336 25.8082H21.7024C20.5609 25.8082 19.6373 25.4668 18.9316 24.7842C18.2259 24.1016 17.873 23.2431 17.873 22.2089ZM18.2778 49.3586V28.6317H25.1893V49.3586H18.2778ZM29.0187 49.3586H35.9302V37.7851C35.9302 37.0611 36.0133 36.5025 36.1793 36.1095C36.4699 35.4062 36.9109 34.8115 37.5025 34.3254C38.094 33.8393 38.836 33.5962 39.7285 33.5962C42.0531 33.5962 43.2154 35.158 43.2154 38.2815V49.3586H50.1269V37.4748C50.1269 34.4133 49.4005 32.0914 47.9476 30.5089C46.4947 28.9265 44.5749 28.1353 42.188 28.1353C39.5105 28.1353 37.4246 29.2833 35.9302 31.5794V31.6415H35.8991L35.9302 31.5794V28.6317H29.0187C29.0602 29.2937 29.081 31.3519 29.081 34.8064C29.081 38.2608 29.0602 43.1116 29.0187 49.3586Z" fill="white"/>
</svg>
