<svg width="68" height="68" viewBox="0 0 68 68" fill="none" xmlns="http://www.w3.org/2000/svg">
<rect width="68" height="68" fill="#1BA8FF"/>
<path d="M40.36 18.5996V18.5928H42.1332L42.7812 18.7227C43.2131 18.8071 43.6053 18.9177 43.9577 19.0545C44.3101 19.1913 44.6511 19.3509 44.9807 19.5333C45.3104 19.7157 45.6093 19.9015 45.8776 20.0908C46.1436 20.2778 46.3823 20.4761 46.5937 20.6859C46.8028 20.8979 47.1291 20.9526 47.5724 20.85C48.0157 20.7474 48.4931 20.6049 49.0047 20.4225C49.5162 20.2401 50.0221 20.0349 50.5222 19.8069C51.0224 19.5789 51.327 19.4341 51.4361 19.3726C51.543 19.3087 51.5998 19.2745 51.6066 19.27L51.6134 19.2597L51.6475 19.2426L51.6816 19.2255L51.7157 19.2084L51.7498 19.1913L51.7567 19.181L51.7669 19.1742L51.7771 19.1673L51.7839 19.1571L51.818 19.1468L51.8521 19.14L51.8454 19.1913L51.8351 19.2426L51.818 19.2939L51.801 19.3452L51.7839 19.3794L51.7669 19.4136L51.7498 19.4649C51.7385 19.4991 51.7271 19.5447 51.7157 19.6017C51.7044 19.6587 51.5964 19.8867 51.3918 20.2857C51.1872 20.6847 50.9314 21.0894 50.6245 21.4999C50.3176 21.9103 50.0425 22.2203 49.7993 22.4301C49.5537 22.6422 49.3912 22.7904 49.3116 22.8747C49.232 22.9614 49.1354 23.0412 49.0217 23.1141L48.8512 23.227L48.8171 23.2441L48.783 23.2612L48.7762 23.2715L48.766 23.2783L48.7557 23.2851L48.7489 23.2954L48.7148 23.3125L48.6807 23.3296L48.6739 23.3399L48.6637 23.3467L48.6534 23.3535L48.6466 23.3638L48.6398 23.3741L48.6296 23.3809L48.6193 23.3877L48.6125 23.398H48.783L49.7379 23.1928C50.3744 23.056 50.9826 22.8907 51.5623 22.6969L52.483 22.3891L52.5853 22.3549L52.6365 22.3378L52.6706 22.3207L52.7047 22.3036L52.7388 22.2865L52.7729 22.2694L52.8411 22.2591L52.9093 22.2523V22.3207L52.8922 22.3275L52.8752 22.3378L52.8684 22.348L52.8581 22.3549L52.8479 22.3617L52.8411 22.372L52.8343 22.3822L52.824 22.3891L52.8138 22.3959L52.807 22.4062L52.8002 22.4164L52.7899 22.4233L52.7729 22.4575L52.7558 22.4917L52.7456 22.4985C52.7411 22.5054 52.5967 22.6991 52.3125 23.0799C52.0283 23.463 51.8749 23.6568 51.8521 23.6614C51.8294 23.6682 51.7976 23.7024 51.7567 23.764C51.718 23.8278 51.477 24.082 51.0337 24.5266C50.5904 24.9712 50.1562 25.3668 49.7311 25.7134C49.3037 26.0623 49.0877 26.4909 49.0831 26.9994C49.0763 27.5055 49.0502 28.0779 49.0047 28.7163C48.9592 29.3547 48.874 30.0444 48.7489 30.7854C48.6239 31.5264 48.4306 32.3644 48.1692 33.2992C47.9078 34.234 47.5895 35.146 47.2143 36.0353C46.8392 36.9245 46.4471 37.7225 46.0378 38.4293C45.6286 39.1362 45.2535 39.7347 44.9125 40.2249C44.5715 40.7151 44.2248 41.1768 43.8724 41.61C43.52 42.0432 43.0745 42.5312 42.5357 43.0738C41.9946 43.6142 41.6991 43.9106 41.649 43.963C41.5968 44.0132 41.374 44.2002 40.9806 44.5239C40.5896 44.85 40.169 45.176 39.7189 45.5021C39.271 45.8259 38.8595 46.096 38.4844 46.3126C38.1093 46.5292 37.6569 46.7766 37.1272 47.0548C36.5997 47.3352 36.0291 47.5952 35.4153 47.8346C34.8014 48.074 34.1535 48.2963 33.4715 48.5015C32.7895 48.7067 32.1302 48.8663 31.4936 48.9803C30.8571 49.0943 30.1352 49.1912 29.3282 49.271L28.1176 49.3907V49.4078H25.901V49.3907L25.6111 49.3736C25.4179 49.3622 25.2587 49.3508 25.1337 49.3394C25.0087 49.328 24.5369 49.2653 23.7185 49.1513C22.9 49.0373 22.2578 48.9233 21.7917 48.8093C21.3257 48.6953 20.6323 48.4787 19.7116 48.1595C18.7908 47.8403 18.0031 47.5176 17.3483 47.1916C16.6959 46.8678 16.2867 46.6626 16.1207 46.576C15.957 46.4916 15.7728 46.3867 15.5682 46.2613L15.2613 46.0732L15.2545 46.063L15.2443 46.0561L15.234 46.0493L15.2272 46.039L15.1931 46.0219L15.159 46.0048L15.1522 45.9946L15.142 45.9877L15.1317 45.9809L15.1249 45.9706L15.1181 45.9604L15.1079 45.9535H15.0908V45.8851L15.1249 45.892L15.159 45.9022L15.3125 45.9193C15.4148 45.9307 15.6933 45.9478 16.148 45.9706C16.6027 45.9934 17.0858 45.9934 17.5973 45.9706C18.1088 45.9478 18.6317 45.8965 19.1659 45.8167C19.7002 45.7369 20.3311 45.6001 21.0586 45.4063C21.7861 45.2125 22.4545 44.9822 23.0638 44.7155C23.6708 44.4464 24.1027 44.2458 24.3596 44.1135C24.6142 43.9836 25.003 43.7419 25.5259 43.3885L26.3102 42.8583L26.317 42.8481L26.3272 42.8412L26.3375 42.8344L26.3443 42.8241L26.3511 42.8139L26.3613 42.807L26.3716 42.8002L26.3784 42.7899L26.4125 42.7797L26.4466 42.7728L26.4534 42.7386L26.4636 42.7044L26.4739 42.6976L26.4807 42.6873L26.2079 42.6702C26.026 42.6588 25.8498 42.6474 25.6793 42.636C25.5088 42.6246 25.2417 42.5733 24.8779 42.4821C24.5142 42.3909 24.122 42.2541 23.7014 42.0717C23.2809 41.8893 22.8716 41.6727 22.4738 41.4219C22.0759 41.1711 21.7883 40.9624 21.611 40.796C21.436 40.6318 21.2086 40.3993 20.929 40.0983C20.6516 39.7951 20.4106 39.4838 20.206 39.1646C20.0014 38.8454 19.8059 38.4772 19.6195 38.0599L19.3364 37.4375L19.3194 37.3862L19.3023 37.3349L19.2921 37.3007L19.2853 37.2665L19.3364 37.2733L19.3876 37.2836L19.7627 37.3349C20.0128 37.3691 20.405 37.3805 20.9392 37.3691C21.4735 37.3577 21.8429 37.3349 22.0475 37.3007C22.2521 37.2665 22.3772 37.2437 22.4226 37.2323L22.4908 37.2152L22.5761 37.1981L22.6613 37.181L22.6682 37.1707L22.6784 37.1639L22.6886 37.157L22.6954 37.1468L22.6272 37.1297L22.559 37.1126L22.4908 37.0955L22.4226 37.0784L22.3544 37.0613C22.309 37.0499 22.2294 37.0271 22.1157 36.9929C22.0021 36.9587 21.6951 36.8333 21.195 36.6167C20.6948 36.4001 20.297 36.1892 20.0014 35.984C19.7051 35.7782 19.4226 35.5531 19.1557 35.3102C18.8897 35.0639 18.5976 34.747 18.2793 34.3594C17.961 33.9718 17.6769 33.5215 17.4268 33.0085C17.1767 32.4955 16.9891 32.0053 16.8641 31.5378C16.7395 31.0732 16.6574 30.5981 16.6186 30.1185L16.5572 29.4003L16.5913 29.4071L16.6254 29.4174L16.6595 29.4345L16.6936 29.4516L16.7277 29.4687L16.7618 29.4858L17.2904 29.7252C17.6428 29.8848 18.0804 30.0216 18.6033 30.1356C19.1262 30.2496 19.4387 30.3123 19.5411 30.3237L19.6945 30.3408H20.0014L19.9946 30.3305L19.9844 30.3237L19.9741 30.3169L19.9673 30.3066L19.9605 30.2963L19.9503 30.2895L19.94 30.2827L19.9332 30.2724L19.8991 30.2553L19.865 30.2382L19.8582 30.2279L19.848 30.2211L19.8377 30.2143L19.8309 30.204L19.7968 30.1869L19.7627 30.1698L19.7559 30.1595C19.7491 30.1549 19.6513 30.082 19.4626 29.9406C19.2762 29.797 19.0807 29.6112 18.8761 29.3832C18.6715 29.1552 18.4669 28.9157 18.2623 28.665C18.0573 28.4136 17.8747 28.1446 17.7166 27.8612C17.5575 27.5762 17.3893 27.2137 17.2119 26.7736C17.0369 26.3359 16.9039 25.8947 16.8129 25.4501C16.722 25.0054 16.6709 24.5665 16.6595 24.1333C16.6481 23.7001 16.6595 23.3296 16.6936 23.0218C16.7277 22.714 16.7959 22.3663 16.8982 21.9787C17.0005 21.5911 17.1483 21.1807 17.3415 20.7474L17.6314 20.0976L17.6484 20.0463L17.6655 19.995L17.6757 19.9882L17.6825 19.9779L17.6893 19.9677L17.6996 19.9608L17.7098 19.9677L17.7166 19.9779L17.7234 19.9882L17.7337 19.995L17.7439 20.0019L17.7507 20.0121L17.7576 20.0224L17.7678 20.0292L17.7848 20.0634L17.8019 20.0976L17.8121 20.1045L17.8189 20.1147L18.2793 20.6277C18.5862 20.9697 18.95 21.3517 19.3705 21.7735C19.7912 22.1953 20.0242 22.4141 20.0696 22.4301C20.1151 22.4483 20.1719 22.5008 20.2401 22.5874C20.3083 22.6718 20.5357 22.8736 20.9222 23.1928C21.3087 23.512 21.8145 23.8825 22.4397 24.3043C23.0649 24.7261 23.7583 25.1423 24.5199 25.5527C25.2815 25.9631 26.0999 26.3336 26.9752 26.6642C27.8504 26.9948 28.4643 27.2114 28.8166 27.314C29.169 27.4166 29.7715 27.5477 30.624 27.7073C31.4765 27.8669 32.1188 27.9695 32.5507 28.0151C32.9827 28.0607 33.2783 28.087 33.4374 28.0938L33.6761 28.1006L33.6693 28.0493L33.659 27.998L33.5908 27.5705C33.5454 27.2855 33.5226 26.8865 33.5226 26.3735C33.5226 25.8605 33.5624 25.3874 33.642 24.9541C33.7216 24.5209 33.8409 24.082 34.0001 23.6374C34.1592 23.1928 34.3149 22.8359 34.4672 22.5669C34.6219 22.3002 34.8242 21.9958 35.0742 21.6538C35.3243 21.3117 35.6483 20.9583 36.0461 20.5935C36.444 20.2287 36.8987 19.9038 37.4102 19.6188C37.9217 19.3338 38.3935 19.1172 38.8254 18.969C39.2574 18.8208 39.6211 18.7239 39.9166 18.6783C40.2122 18.6327 40.36 18.6065 40.36 18.5996Z" fill="white"/>
</svg>
